<?xml version="1.0" encoding="UTF-8" standalone="no"?>
<svg
   xmlns:svg="http://www.w3.org/2000/svg"
   xmlns="http://www.w3.org/2000/svg"
   version="1.1"
   id="svg2"
   viewBox="0 0 242.59499 62.459999"
   height="17.6276mm"
   width="68.465698mm">
  <defs
     id="defs4" />
  <metadata
     id="metadata7">
    </metadata>
  <g
     transform="translate(-0.518571,-0.619457)"
     id="layer1">
    <flowRoot
       style="font-style:italic;font-variant:normal;font-weight:normal;font-stretch:normal;font-size:40px;line-height:125%;font-family:Vollkorn;-inkscape-font-specification:'Vollkorn Italic';letter-spacing:0px;word-spacing:0px;fill:#000000;fill-opacity:1;stroke:none;stroke-width:1px;stroke-linecap:butt;stroke-linejoin:miter;stroke-opacity:1"
       id="flowRoot3336"
       xml:space="preserve"><flowRegion
         id="flowRegion3338"><rect
           style="font-style:italic;font-variant:normal;font-weight:normal;font-stretch:normal;font-family:Vollkorn;-inkscape-font-specification:'Vollkorn Italic'"
           y="50.219345"
           x="60"
           height="242.14285"
           width="597.85712"
           id="rect3340" /></flowRegion><flowPara
         id="flowPara3342" /></flowRoot>    
    <g
       transform="translate(-78.571429,-69.285715)"
       id="flowRoot3344"
       style="font-style:normal;font-weight:normal;font-size:40px;line-height:125%;font-family:Sans;letter-spacing:0px;word-spacing:0px;fill:#000000;fill-opacity:1;stroke:none;stroke-width:1px;stroke-linecap:butt;stroke-linejoin:miter;stroke-opacity:1">
      <path
         id="path3450"
         style="font-style:italic;font-variant:normal;font-weight:normal;font-stretch:normal;font-size:90px;font-family:Vollkorn;-inkscape-font-specification:'Vollkorn Italic'"
         d="m 126.7,70.715172 q 5.04,0 8.46,-0.27 0,1.98 -0.81,3.87 -2.16,1.08 -3.78,3.15 -1.53,2.07 -4.68,8.19 -12.69,24.839998 -25.11,45.899998 -0.9,0.63 -2.52,0.63 -0.81,0 -1.17,-0.09 -7.11,-30.6 -11.79,-48.149998 -1.08,-3.96 -1.89,-5.85 -0.72,-1.89 -1.62,-2.61 -0.9,-0.81 -2.52,-1.26 -0.18,-0.63 -0.18,-1.98 0,-1.17 0.09,-1.8 4.05,0.27 10.35,0.27 7.02,0 11.25,-0.27 0,2.07 -0.81,3.96 -3.69,0.45 -5.04,1.26 -1.35,0.81 -1.35,3.06 0,1.8 0.99,5.76 4.77,17.459998 8.37,34.379998 10.26,-17.55 18.36,-34.289998 1.26,-2.61 1.8,-4.05 0.54,-1.53 0.54,-2.52 0,-1.44 -1.17,-2.25 -1.17,-0.81 -3.87,-1.44 -0.18,-0.72 -0.18,-2.07 0,-1.17 0.09,-1.8 2.52,0.27 8.19,0.27 z" />
      <path
         id="path3452"
         style="font-style:italic;font-variant:normal;font-weight:normal;font-stretch:normal;font-size:90px;font-family:Vollkorn;-inkscape-font-specification:'Vollkorn Italic'"
         d="m 145.89672,82.145172 q 0.36,-2.34 0.36,-3.06 0,-2.43 -1.35,-3.33 -1.26,-0.99 -4.41,-1.44 -0.18,-1.44 -0.18,-2.25 0,-1.08 0.09,-1.62 5.04,0.27 10.8,0.27 5.58,0 10.98,-0.27 -0.18,2.43 -0.81,3.87 -2.43,0.45 -3.69,1.17 -1.26,0.63 -2.07,2.16 -0.72,1.53 -1.26,4.5 l -6.57,37.979998 q -0.36,1.8 -0.36,3.42 0,2.25 1.17,3.15 1.26,0.9 4.5,1.26 0.27,1.08 0.27,2.43 0,0.99 -0.09,1.44 -5.4,-0.27 -10.89,-0.27 -6.3,0 -10.89,0.27 0,-2.25 0.72,-3.87 2.52,-0.27 3.78,-0.9 1.35,-0.72 2.07,-2.25 0.72,-1.53 1.26,-4.68 l 6.57,-37.979998 z" />
      <path
         id="path3454"
         style="font-style:italic;font-variant:normal;font-weight:normal;font-stretch:normal;font-size:90px;font-family:Vollkorn;-inkscape-font-specification:'Vollkorn Italic'"
         d="m 178.06469,82.145172 q 0.36,-2.34 0.36,-3.06 0,-2.43 -1.35,-3.33 -1.26,-0.99 -4.41,-1.44 -0.18,-1.44 -0.18,-2.25 0,-1.08 0.09,-1.62 5.04,0.27 10.8,0.27 5.58,0 10.98,-0.27 -0.18,2.43 -0.81,3.87 -2.43,0.45 -3.69,1.17 -1.26,0.63 -2.07,2.16 -0.72,1.53 -1.26,4.5 l -6.57,37.979998 q -0.36,1.8 -0.36,3.42 0,2.25 1.17,3.15 1.26,0.9 4.5,1.26 0.27,1.08 0.27,2.43 0,0.99 -0.09,1.44 -5.4,-0.27 -10.89,-0.27 -6.3,0 -10.89,0.27 0,-2.25 0.72,-3.87 2.52,-0.27 3.78,-0.9 1.35,-0.72 2.07,-2.25 0.72,-1.53 1.26,-4.68 l 6.57,-37.979998 z" />
      <path
         id="path3456"
         style="font-style:italic;font-variant:normal;font-weight:normal;font-stretch:normal;font-size:90px;font-family:Vollkorn;-inkscape-font-specification:'Vollkorn Italic'"
         d="m 212.03266,132.36517 q -6.48,0 -10.71,-1.62 -4.23,-1.62 -7.92,-4.86 2.25,-7.02 2.61,-12.51 1.35,-0.45 2.79,-0.45 1.08,0 2.07,0.27 -0.09,0.9 -0.09,2.61 0,6.48 2.61,9.36 2.61,2.88 8.82,2.88 4.59,0 7.65,-3.06 3.06,-3.06 3.06,-7.83 0,-3.87 -2.52,-6.57 -2.43,-2.7 -7.56,-6.21 -3.96,-2.79 -6.48,-4.949998 -2.43,-2.16 -4.14,-5.22 -1.71,-3.15 -1.71,-7.2 0,-1.89 0.36,-3.6 1.08,-6.3 6.12,-9.9 5.04,-3.6 13.05,-3.6 4.5,0 8.1,1.17 3.6,1.17 5.94,3.06 -0.99,6.39 -0.99,11.61 -1.35,0.54 -3.33,0.54 -1.08,0 -1.62,-0.09 -0.09,-6.66 -2.34,-9.36 -2.25,-2.79 -6.39,-2.79 -4.5,0 -7.2,2.16 -2.7,2.07 -3.42,6.66 -0.09,0.54 -0.09,1.62 0,2.7 1.35,4.95 1.44,2.25 3.51,3.96 2.07,1.71 5.67,4.32 4.05,2.789998 6.48,5.039998 2.52,2.16 4.23,5.22 1.8,2.97 1.8,6.75 0,1.44 -0.27,3.06 -1.17,6.48 -6.66,10.53 -5.4,4.05 -12.78,4.05 z" />
      <path
         id="path3458"
         style="font-style:italic;font-variant:normal;font-weight:normal;font-stretch:normal;font-size:90px;font-family:Vollkorn;-inkscape-font-specification:'Vollkorn Italic'"
         d="m 251.71703,82.145172 q 0.36,-2.34 0.36,-3.06 0,-2.43 -1.35,-3.33 -1.26,-0.99 -4.41,-1.44 -0.18,-1.44 -0.18,-2.25 0,-1.08 0.09,-1.62 5.04,0.27 10.8,0.27 5.58,0 10.98,-0.27 -0.18,2.43 -0.81,3.87 -2.43,0.45 -3.69,1.17 -1.26,0.63 -2.07,2.16 -0.72,1.53 -1.26,4.5 l -6.57,37.979998 q -0.36,1.8 -0.36,3.42 0,2.25 1.17,3.15 1.26,0.9 4.5,1.26 0.27,1.08 0.27,2.43 0,0.99 -0.09,1.44 -5.4,-0.27 -10.89,-0.27 -6.3,0 -10.89,0.27 0,-2.25 0.72,-3.87 2.52,-0.27 3.78,-0.9 1.35,-0.72 2.07,-2.25 0.72,-1.53 1.26,-4.68 l 6.57,-37.979998 z" />
      <path
         id="path3460"
         style="font-style:italic;font-variant:normal;font-weight:normal;font-stretch:normal;font-size:90px;font-family:Vollkorn;-inkscape-font-specification:'Vollkorn Italic'"
         d="m 298.375,70.715172 q 18.36,0 23.31,-0.27 -1.17,6.84 -1.17,14.22 -1.62,0.9 -4.32,0.72 -0.09,-4.32 -0.9,-6.66 -0.72,-2.43 -2.7,-3.42 -1.89,-1.08 -5.67,-1.08 l -4.5,0 -8.1,46.349998 q -0.36,2.34 -0.36,2.97 0,2.07 1.35,3.06 1.35,0.9 5.04,1.35 0.27,1.08 0.27,2.43 0,0.9 -0.09,1.44 -3.78,-0.27 -11.52,-0.27 -8.55,0 -11.79,0.27 0,-2.25 0.63,-3.96 2.97,-0.36 4.5,-1.08 1.53,-0.81 2.34,-2.34 0.81,-1.62 1.35,-4.77 l 7.92,-45.449998 -5.31,0 q -4.77,0 -7.29,2.61 -2.52,2.52 -4.59,8.82 -1.53,0 -2.52,-0.27 -0.99,-0.27 -1.71,-0.99 0.9,-2.79 1.8,-6.75 0.99,-3.96 1.44,-7.2 4.95,0.27 22.59,0.27 z" />
    </g>
  </g>
</svg>
